<svg xmlns="http://www.w3.org/2000/svg" version="1.1" xmlns:xlink="http://www.w3.org/1999/xlink" width="200" height="200"><svg xmlns="http://www.w3.org/2000/svg" version="1.1" xmlns:xlink="http://www.w3.org/1999/xlink" viewBox="0 0 200 200"><rect width="200" height="200" fill="url('#gradient')"></rect><defs><linearGradient id="SvgjsLinearGradient1001" gradientTransform="rotate(45 0.5 0.5)"><stop offset="0%" stop-color="#ffffff"></stop><stop offset="100%" stop-color="#ffffff"></stop></linearGradient></defs><g><g fill="#283855" transform="matrix(1.7731601731601732,0,0,1.7731601731601732,8.80570656732047,113.13247780696653)" stroke="#739bab" stroke-width="0"><path d="M9.17-4.81L12.58-4.81Q12.51-3.33 11.78-2.19Q11.04-1.05 9.72-0.43Q8.40 0.20 6.70 0.20L6.70 0.20Q3.90 0.20 2.29-1.63Q0.67-3.46 0.67-6.79L0.67-6.79L0.67-7.49Q0.67-9.58 1.40-11.15Q2.13-12.71 3.50-13.57Q4.86-14.42 6.66-14.42L6.66-14.42Q9.25-14.42 10.82-13.06Q12.39-11.70 12.61-9.31L12.61-9.31L9.19-9.31Q9.15-10.61 8.54-11.17Q7.92-11.74 6.66-11.74L6.66-11.74Q5.38-11.74 4.79-10.78Q4.19-9.82 4.16-7.72L4.16-7.72L4.16-6.72Q4.16-4.44 4.73-3.47Q5.30-2.49 6.70-2.49L6.70-2.49Q7.88-2.49 8.51-3.05Q9.13-3.60 9.17-4.81L9.17-4.81ZM13.64-4.82L13.63-5.38Q13.63-6.96 14.25-8.20Q14.86-9.43 16.02-10.10Q17.17-10.76 18.72-10.76L18.72-10.76Q21.09-10.76 22.46-9.29Q23.83-7.82 23.83-5.29L23.83-5.29L23.83-5.18Q23.83-2.71 22.46-1.25Q21.08 0.20 18.74 0.20L18.74 0.20Q16.48 0.20 15.12-1.16Q13.75-2.51 13.64-4.82L13.64-4.82ZM16.93-5.77L16.92-5.18Q16.92-3.71 17.38-3.03Q17.84-2.34 18.74-2.34L18.74-2.34Q20.50-2.34 20.54-5.05L20.54-5.05L20.54-5.38Q20.54-8.22 18.72-8.22L18.72-8.22Q17.07-8.22 16.93-5.77L16.93-5.77ZM24.87-4.82L24.86-5.38Q24.86-6.96 25.48-8.20Q26.09-9.43 27.25-10.10Q28.40-10.76 29.95-10.76L29.95-10.76Q32.32-10.76 33.69-9.29Q35.06-7.82 35.06-5.29L35.06-5.29L35.06-5.18Q35.06-2.71 33.69-1.25Q32.31 0.20 29.97 0.20L29.97 0.20Q27.71 0.20 26.35-1.16Q24.98-2.51 24.87-4.82L24.87-4.82ZM28.16-5.77L28.15-5.18Q28.15-3.71 28.61-3.03Q29.07-2.34 29.97-2.34L29.97-2.34Q31.73-2.34 31.77-5.05L31.77-5.05L31.77-5.38Q31.77-8.22 29.95-8.22L29.95-8.22Q28.30-8.22 28.16-5.77L28.16-5.77ZM40.98-2.34L40.98-2.34Q41.67-2.34 42.05-2.72Q42.43-3.10 42.42-3.77L42.42-3.77L45.51-3.77Q45.51-2.03 44.26-0.92Q43.02 0.20 41.05 0.20L41.05 0.20Q38.75 0.20 37.42-1.25Q36.09-2.70 36.09-5.25L36.09-5.25L36.09-5.39Q36.09-6.99 36.68-8.22Q37.28-9.44 38.39-10.10Q39.50-10.76 41.03-10.76L41.03-10.76Q43.09-10.76 44.30-9.62Q45.51-8.48 45.51-6.52L45.51-6.52L42.42-6.52Q42.42-7.34 42.02-7.78Q41.62-8.22 40.95-8.22L40.95-8.22Q39.67-8.22 39.45-6.59L39.45-6.59Q39.38-6.07 39.38-5.17L39.38-5.17Q39.38-3.57 39.77-2.96Q40.15-2.34 40.98-2.34ZM53.45 0L51.14-3.94L50.21-3.01L50.21 0L46.92 0L46.92-15.01L50.21-15.01L50.21-7.04L50.55-7.48L53.03-10.57L56.97-10.57L53.27-6.22L57.22 0L53.45 0ZM62.75 0.20L62.75 0.20Q60.32 0.20 58.82-1.25Q57.31-2.71 57.31-5.03L57.31-5.03L57.31-5.30Q57.31-6.92 57.92-8.16Q58.52-9.40 59.67-10.08Q60.82-10.76 62.40-10.76L62.40-10.76Q64.63-10.76 65.92-9.38Q67.21-8.00 67.21-5.53L67.21-5.53L67.21-4.25L60.66-4.25Q60.84-3.36 61.44-2.85Q62.03-2.34 62.98-2.34L62.98-2.34Q64.54-2.34 65.42-3.44L65.42-3.44L66.92-1.66Q66.31-0.81 65.18-0.31Q64.05 0.20 62.75 0.20ZM62.38-8.22L62.38-8.22Q60.94-8.22 60.66-6.31L60.66-6.31L63.98-6.31L63.98-6.56Q64.00-7.35 63.58-7.79Q63.16-8.22 62.38-8.22ZM68.12-5.36L68.12-5.36Q68.12-7.87 69.20-9.32Q70.28-10.76 72.23-10.76L72.23-10.76Q73.64-10.76 74.61-9.65L74.61-9.65L74.61-15L77.91-15L77.91 0L74.95 0L74.79-1.13Q73.77 0.20 72.21 0.20L72.21 0.20Q70.32 0.20 69.22-1.25Q68.12-2.70 68.12-5.36ZM71.42-5.76L71.41-5.16Q71.41-2.34 73.05-2.34L73.05-2.34Q74.14-2.34 74.61-3.26L74.61-3.26L74.61-7.29Q74.16-8.22 73.07-8.22L73.07-8.22Q71.54-8.22 71.42-5.76L71.42-5.76ZM93.82 0L92.99-2.66L88.29-2.66L87.47 0L83.81 0L89.02-14.22L92.25-14.22L97.50 0L93.82 0ZM90.63-10.23L89.11-5.30L92.17-5.30L90.63-10.23ZM102.19-14.22L102.19 0L98.77 0L98.77-14.22L102.19-14.22Z"></path></g></g></svg><style>@media (prefers-color-scheme: light) { :root { filter: none; } }
@media (prefers-color-scheme: dark) { :root { filter: none; } }
</style></svg>